<svg xmlns="http://www.w3.org/2000/svg" viewBox="0 0 640 400" role="img" aria-labelledby="title desc">
  <title id="title">Guest-ready Airbnb bedroom reset</title>
  <desc id="desc">A neatly made guest bed with pillows, bedside table and sparkle details.</desc>
  <defs>
    <linearGradient id="bg" x1="0" x2="1" y1="0" y2="1">
      <stop stop-color="#f7fbff"/>
      <stop offset="1" stop-color="#fef3c7"/>
    </linearGradient>
  </defs>
  <rect width="640" height="400" rx="34" fill="url(#bg)"/>
  <path d="M88 128h464v176H88z" fill="#fff" stroke="#d1def0" stroke-width="8"/>
  <path d="M124 188h392v116H124z" fill="#dbeafe"/>
  <path d="M146 146h116v78H146zM282 146h116v78H282z" fill="#fff" stroke="#b9d3ee" stroke-width="7"/>
  <path d="M116 246h424v78H116z" fill="#0b5ed7"/>
  <path d="M140 324h376" stroke="#041f4f" stroke-width="10" stroke-linecap="round"/>
  <path d="M464 136h52v72h-52z" fill="#fff7ed" stroke="#f59e0b" stroke-width="6"/>
  <path d="M480 120h20v22h-20z" fill="#f59e0b"/>
  <path d="M522 92v20M512 102h20M102 100v18M93 109h18M535 238v18M526 247h18" stroke="#1687f2" stroke-width="8" stroke-linecap="round"/>
</svg>
