<svg xmlns="http://www.w3.org/2000/svg" viewBox="0 0 640 400" role="img" aria-labelledby="title desc">
  <title id="title">Post-renovation dust clean-up</title>
  <desc id="desc">A renovated room with dust being swept from the floor and a paint roller nearby.</desc>
  <defs>
    <linearGradient id="bg" x1="0" x2="1" y1="0" y2="1">
      <stop stop-color="#fff7ed"/>
      <stop offset="1" stop-color="#eff6ff"/>
    </linearGradient>
  </defs>
  <rect width="640" height="400" rx="34" fill="url(#bg)"/>
  <path d="M84 260h472v80H84z" fill="#e2e8f0"/>
  <path d="M118 94h360v166H118z" fill="#fff" stroke="#d2dae8" stroke-width="8"/>
  <path d="M144 122h140v82H144z" fill="#e9f5ff" stroke="#9cc5ee" stroke-width="6"/>
  <path d="M334 124h110v136H334z" fill="#f8fafc" stroke="#d2dae8" stroke-width="7"/>
  <path d="M388 260v-56" stroke="#0b5ed7" stroke-width="7" stroke-linecap="round"/>
  <path d="M146 315c80-31 166-32 252 0" fill="none" stroke="#94a3b8" stroke-width="14" stroke-linecap="round" stroke-dasharray="2 22"/>
  <path d="M412 282h86l-18 48h-86z" fill="#0b5ed7"/>
  <path d="M430 260l44 42" stroke="#041f4f" stroke-width="12" stroke-linecap="round"/>
  <path d="M122 282l70-98" stroke="#041f4f" stroke-width="12" stroke-linecap="round"/>
  <path d="M180 178l30 22" stroke="#16a3ff" stroke-width="18" stroke-linecap="round"/>
  <path d="M506 112h48v22h-48z" fill="#f59e0b"/>
  <path d="M530 134v88" stroke="#7c2d12" stroke-width="8" stroke-linecap="round"/>
</svg>
